<?xml version="1.0"?>
<svg xmlns="http://www.w3.org/2000/svg" xmlns:xlink="http://www.w3.org/1999/xlink" version="1.1" id="Capa_1" x="0px" y="0px" viewBox="0 0 512 512" style="enable-background:new 0 0 512 512;" xml:space="preserve" width="512px" height="512px"><g transform="matrix(1 -2.44929e-16 2.44929e-16 1 5 0)"><path style="fill:#35925D;" d="M209.294,65.869c-26.414,12.943-45.358,35.01-54.929,60.536c-3.559,9.491,1.579,19.976,11.261,22.979  c26.039,8.076,55.084,6.624,81.498-6.319c31.997-15.68,53.033-44.746,59.726-77.135C277.151,51.373,241.291,50.189,209.294,65.869z" data-original="#35925D"/><g>
	<path style="fill:#7CB777;" d="M200.629,122.041c-2.455,0-4.869-1.167-6.368-3.341c-2.423-3.513-1.539-8.325,1.974-10.747   c50.791-35.026,106.428-48.95,108.771-49.526c4.142-1.02,8.329,1.516,9.346,5.661c1.018,4.143-1.516,8.328-5.66,9.346   c-0.718,0.178-55.384,13.931-103.684,47.241C203.669,121.597,202.14,122.04,200.629,122.041z" data-original="#7CB777"/>
	<path style="fill:#7CB777;" d="M362.633,305.823c-0.711,0-1.43-0.057-2.154-0.175c-7.232-1.181-12.14-7.998-10.964-15.231   c0.124-0.78,6.959-44.97-2.385-99.762c-5.446-31.929-15.252-61.197-29.147-86.988c-17.219-31.962-40.867-58.729-70.286-79.559   c-5.983-4.235-7.399-12.52-3.163-18.503c4.235-5.982,12.519-7.4,18.502-3.163c32.938,23.32,59.375,53.302,78.575,89.112   c15.26,28.462,25.972,60.601,31.838,95.528c9.939,59.181,2.585,105.653,2.266,107.602   C374.654,301.195,369.022,305.823,362.633,305.823z" data-original="#7CB777"/>
</g><path style="fill:#35925D;" d="M341.612,91.555c-8.804-16.419-19.147-31.598-30.923-45.487c-0.441,12.675-2.062,25.19-4.878,37.484  c4.351,6.459,8.424,13.155,12.173,20.113c13.894,25.792,23.701,55.059,29.147,86.988c0.684,4.01,1.278,7.962,1.799,11.846  c7.679-11.651,14.513-23.592,20.473-35.78C363.167,139.605,353.858,114.393,341.612,91.555z" data-original="#35925D"/><path style="fill:#7CB777;" d="M187.862,292.716c-0.432-0.564-0.824-1.169-1.171-1.816c-3.462-6.458-1.035-14.501,5.422-17.966  c0.694-0.376,39.929-21.828,77.736-62.571c22.033-23.743,39.299-49.328,51.321-76.044c14.897-33.108,21.76-68.16,20.401-104.18  c-0.277-7.326,5.437-13.488,12.763-13.764c7.325-0.277,13.488,5.436,13.764,12.763c1.523,40.328-6.196,79.55-22.942,116.57  c-13.31,29.424-32.306,57.476-56.462,83.375c-40.93,43.886-82.291,66.313-84.032,67.246  C198.847,299.444,191.748,297.787,187.862,292.716z" data-original="#7CB777"/><circle style="fill:#FD6F71;" cx="373.235" cy="381.033" r="130.967" data-original="#FD6F71" class=""/><path style="fill:#b40D50;" d="M283.478,381.036c0-65.319,47.821-119.462,110.36-129.345c-6.713-1.061-13.592-1.618-20.604-1.618  c-72.329,0-130.964,58.635-130.964,130.964c0,72.329,58.635,130.964,130.964,130.964c7.011,0,13.891-0.557,20.604-1.618  C331.299,500.498,283.478,446.355,283.478,381.036z" data-original="#b40D50"/><g>
	<path style="fill:#000000" d="M307.91,391.519c-4.268,0-7.726-3.459-7.726-7.726V371.97c0-4.267,3.458-7.726,7.726-7.726   s7.726,3.459,7.726,7.726v11.822C315.636,388.059,312.178,391.519,307.91,391.519z" data-original="#3A484A" class="active-path" data-old_color="#3A484A"/>
	<path style="fill:#000000" d="M438.56,391.519c-4.268,0-7.726-3.459-7.726-7.726V371.97c0-4.267,3.458-7.726,7.726-7.726   c4.268,0,7.726,3.459,7.726,7.726v11.822C446.286,388.059,442.828,391.519,438.56,391.519z" data-original="#3A484A" class="active-path" data-old_color="#3A484A"/>
	<path style="fill:#000000" d="M373.235,397.829c-8.513,0-16.51-3.562-21.94-9.775c-2.809-3.213-2.481-8.094,0.732-10.902   c3.212-2.808,8.094-2.48,10.901,0.732c2.496,2.855,6.251,4.492,10.306,4.492c4.055,0,7.81-1.637,10.306-4.492   c2.808-3.213,7.689-3.541,10.901-0.732c3.213,2.808,3.542,7.689,0.732,10.902C389.745,394.266,381.748,397.829,373.235,397.829z" data-original="#3A484A" class="active-path" data-old_color="#3A484A"/>
</g><circle style="fill:#FD6F71;" cx="138.766" cy="349.18" r="130.967" data-original="#FD6F71" class=""/><path style="fill:#b40D50;" d="M87.367,441.785c-51.144-51.144-51.144-134.067,0-185.211c20.314-20.314,45.643-32.552,72.002-36.728  c-40.003-6.339-82.379,5.898-113.21,36.728c-51.144,51.144-51.144,134.067,0,185.211c30.83,30.83,73.207,43.067,113.21,36.728  C133.01,474.337,107.681,462.1,87.367,441.785z" data-original="#b40D50"/><g>
	<path style="fill:#000000" d="M90.624,312.663c-1.978,0-3.955-0.754-5.464-2.263c-3.017-3.017-3.017-7.91,0-10.927l8.361-8.36   c3.017-3.017,7.91-3.016,10.926,0c3.017,3.017,3.017,7.91,0,10.927l-8.361,8.36C94.579,311.909,92.601,312.663,90.624,312.663z" data-original="#3A484A" class="active-path" data-old_color="#3A484A"/>
	<path style="fill:#000000" d="M183.008,405.047c-1.978,0-3.955-0.754-5.464-2.263c-3.017-3.017-3.017-7.91,0-10.927l8.361-8.36   c3.017-3.017,7.91-3.016,10.926,0c3.017,3.017,3.017,7.91,0,10.927l-8.361,8.36C186.963,404.293,184.985,405.047,183.008,405.047z" data-original="#3A484A" class="active-path" data-old_color="#3A484A"/>
	<path style="fill:#000000" d="M147.452,369.719c-7.59,0-14.996-3.1-20.561-8.664c-6.02-6.02-9.155-14.195-8.603-22.427   c0.286-4.258,3.97-7.475,8.227-7.191c4.258,0.286,7.477,3.969,7.191,8.227c-0.254,3.783,1.244,7.598,4.11,10.464   c2.866,2.866,6.682,4.366,10.463,4.11c4.261-0.284,7.941,2.934,8.227,7.191c0.285,4.258-2.934,7.941-7.191,8.227   C148.693,369.698,148.072,369.719,147.452,369.719z" data-original="#3A484A" class="active-path" data-old_color="#3A484A"/>
</g></g> </svg>